<mxfile host="app.diagrams.net" agent="Mozilla/5.0 (Windows NT 10.0; Win64; x64) AppleWebKit/537.36 (KHTML, like Gecko) Chrome/133.0.0.0 Safari/537.36" version="26.0.11">
  <diagram name="Page-1" id="ytvxGtMNoNAT2YDwHoGZ">
    <mxGraphModel dx="1720" dy="1796" grid="1" gridSize="10" guides="1" tooltips="1" connect="1" arrows="1" fold="1" page="1" pageScale="1" pageWidth="850" pageHeight="1100" math="0" shadow="0">
      <root>
        <mxCell id="0" />
        <mxCell id="1" parent="0" />
        <mxCell id="UXGLSynC3lZK6X_kjurp-16" style="edgeStyle=orthogonalEdgeStyle;rounded=0;orthogonalLoop=1;jettySize=auto;html=1;entryX=0;entryY=0.5;entryDx=0;entryDy=0;" parent="1" source="UXGLSynC3lZK6X_kjurp-1" target="UXGLSynC3lZK6X_kjurp-5" edge="1">
          <mxGeometry relative="1" as="geometry" />
        </mxCell>
        <mxCell id="UXGLSynC3lZK6X_kjurp-1" value="Web UI" style="rounded=0;whiteSpace=wrap;html=1;" parent="1" vertex="1">
          <mxGeometry x="30" y="20" width="120" height="60" as="geometry" />
        </mxCell>
        <mxCell id="UXGLSynC3lZK6X_kjurp-17" style="edgeStyle=orthogonalEdgeStyle;rounded=0;orthogonalLoop=1;jettySize=auto;html=1;entryX=0;entryY=0.5;entryDx=0;entryDy=0;" parent="1" source="UXGLSynC3lZK6X_kjurp-2" target="UXGLSynC3lZK6X_kjurp-5" edge="1">
          <mxGeometry relative="1" as="geometry" />
        </mxCell>
        <mxCell id="UXGLSynC3lZK6X_kjurp-2" value="Mobile App" style="rounded=0;whiteSpace=wrap;html=1;" parent="1" vertex="1">
          <mxGeometry x="30" y="120" width="120" height="60" as="geometry" />
        </mxCell>
        <mxCell id="6bt88VRjsN6lHDlHJyfs-26" style="edgeStyle=orthogonalEdgeStyle;rounded=0;orthogonalLoop=1;jettySize=auto;html=1;entryX=0;entryY=0.5;entryDx=0;entryDy=0;" edge="1" parent="1" source="UXGLSynC3lZK6X_kjurp-4" target="6bt88VRjsN6lHDlHJyfs-25">
          <mxGeometry relative="1" as="geometry" />
        </mxCell>
        <mxCell id="UXGLSynC3lZK6X_kjurp-4" value="Desktop App" style="rounded=0;whiteSpace=wrap;html=1;" parent="1" vertex="1">
          <mxGeometry x="30" y="295" width="120" height="60" as="geometry" />
        </mxCell>
        <mxCell id="UXGLSynC3lZK6X_kjurp-20" style="edgeStyle=orthogonalEdgeStyle;rounded=0;orthogonalLoop=1;jettySize=auto;html=1;entryX=0;entryY=0.5;entryDx=0;entryDy=0;" parent="1" source="UXGLSynC3lZK6X_kjurp-5" target="UXGLSynC3lZK6X_kjurp-9" edge="1">
          <mxGeometry relative="1" as="geometry" />
        </mxCell>
        <mxCell id="UXGLSynC3lZK6X_kjurp-21" style="edgeStyle=orthogonalEdgeStyle;rounded=0;orthogonalLoop=1;jettySize=auto;html=1;entryX=0;entryY=0.5;entryDx=0;entryDy=0;" parent="1" source="UXGLSynC3lZK6X_kjurp-5" target="UXGLSynC3lZK6X_kjurp-6" edge="1">
          <mxGeometry relative="1" as="geometry" />
        </mxCell>
        <mxCell id="UXGLSynC3lZK6X_kjurp-22" style="edgeStyle=orthogonalEdgeStyle;rounded=0;orthogonalLoop=1;jettySize=auto;html=1;entryX=0;entryY=0.5;entryDx=0;entryDy=0;" parent="1" source="UXGLSynC3lZK6X_kjurp-5" target="UXGLSynC3lZK6X_kjurp-7" edge="1">
          <mxGeometry relative="1" as="geometry" />
        </mxCell>
        <mxCell id="UXGLSynC3lZK6X_kjurp-5" value="External Gateway" style="triangle;whiteSpace=wrap;html=1;" parent="1" vertex="1">
          <mxGeometry x="290" y="120" width="80" height="110" as="geometry" />
        </mxCell>
        <mxCell id="6bt88VRjsN6lHDlHJyfs-48" style="edgeStyle=orthogonalEdgeStyle;rounded=0;orthogonalLoop=1;jettySize=auto;html=1;entryX=0.5;entryY=1;entryDx=0;entryDy=0;" edge="1" parent="1" source="UXGLSynC3lZK6X_kjurp-6" target="6bt88VRjsN6lHDlHJyfs-40">
          <mxGeometry relative="1" as="geometry" />
        </mxCell>
        <mxCell id="UXGLSynC3lZK6X_kjurp-6" value="Booking and Payment&lt;div&gt;Service&lt;/div&gt;" style="rounded=1;whiteSpace=wrap;html=1;" parent="1" vertex="1">
          <mxGeometry x="454" y="140" width="120" height="60" as="geometry" />
        </mxCell>
        <mxCell id="6bt88VRjsN6lHDlHJyfs-49" style="edgeStyle=orthogonalEdgeStyle;rounded=0;orthogonalLoop=1;jettySize=auto;html=1;entryX=0.75;entryY=1;entryDx=0;entryDy=0;" edge="1" parent="1" source="UXGLSynC3lZK6X_kjurp-7" target="6bt88VRjsN6lHDlHJyfs-40">
          <mxGeometry relative="1" as="geometry" />
        </mxCell>
        <mxCell id="UXGLSynC3lZK6X_kjurp-7" value="Movie Management&lt;div&gt;Service&lt;/div&gt;" style="rounded=1;whiteSpace=wrap;html=1;" parent="1" vertex="1">
          <mxGeometry x="454" y="270" width="120" height="60" as="geometry" />
        </mxCell>
        <mxCell id="6bt88VRjsN6lHDlHJyfs-14" style="edgeStyle=orthogonalEdgeStyle;rounded=0;orthogonalLoop=1;jettySize=auto;html=1;entryX=0.5;entryY=1;entryDx=0;entryDy=0;" edge="1" parent="1" source="UXGLSynC3lZK6X_kjurp-8" target="UXGLSynC3lZK6X_kjurp-4">
          <mxGeometry relative="1" as="geometry">
            <Array as="points">
              <mxPoint x="90" y="450" />
            </Array>
          </mxGeometry>
        </mxCell>
        <mxCell id="6bt88VRjsN6lHDlHJyfs-15" style="edgeStyle=orthogonalEdgeStyle;rounded=0;orthogonalLoop=1;jettySize=auto;html=1;entryX=0;entryY=0.5;entryDx=0;entryDy=0;exitX=0;exitY=0.5;exitDx=0;exitDy=0;" edge="1" parent="1" source="UXGLSynC3lZK6X_kjurp-8" target="UXGLSynC3lZK6X_kjurp-2">
          <mxGeometry relative="1" as="geometry">
            <Array as="points">
              <mxPoint x="10" y="510" />
              <mxPoint x="10" y="150" />
            </Array>
          </mxGeometry>
        </mxCell>
        <mxCell id="6bt88VRjsN6lHDlHJyfs-38" style="edgeStyle=orthogonalEdgeStyle;rounded=0;orthogonalLoop=1;jettySize=auto;html=1;entryX=0;entryY=0.5;entryDx=0;entryDy=0;" edge="1" parent="1" source="UXGLSynC3lZK6X_kjurp-8" target="UXGLSynC3lZK6X_kjurp-4">
          <mxGeometry relative="1" as="geometry" />
        </mxCell>
        <mxCell id="6bt88VRjsN6lHDlHJyfs-39" style="edgeStyle=orthogonalEdgeStyle;rounded=0;orthogonalLoop=1;jettySize=auto;html=1;entryX=0;entryY=0.5;entryDx=0;entryDy=0;" edge="1" parent="1" source="UXGLSynC3lZK6X_kjurp-8" target="UXGLSynC3lZK6X_kjurp-1">
          <mxGeometry relative="1" as="geometry" />
        </mxCell>
        <mxCell id="UXGLSynC3lZK6X_kjurp-8" value="Notification Service" style="rounded=1;whiteSpace=wrap;html=1;" parent="1" vertex="1">
          <mxGeometry x="460" y="480" width="120" height="60" as="geometry" />
        </mxCell>
        <mxCell id="6bt88VRjsN6lHDlHJyfs-47" style="edgeStyle=orthogonalEdgeStyle;rounded=0;orthogonalLoop=1;jettySize=auto;html=1;entryX=0.25;entryY=1;entryDx=0;entryDy=0;" edge="1" parent="1" source="UXGLSynC3lZK6X_kjurp-9" target="6bt88VRjsN6lHDlHJyfs-40">
          <mxGeometry relative="1" as="geometry" />
        </mxCell>
        <mxCell id="UXGLSynC3lZK6X_kjurp-9" value="User and Identity Service" style="rounded=1;whiteSpace=wrap;html=1;" parent="1" vertex="1">
          <mxGeometry x="454" y="30" width="120" height="60" as="geometry" />
        </mxCell>
        <mxCell id="6bt88VRjsN6lHDlHJyfs-5" style="edgeStyle=orthogonalEdgeStyle;rounded=0;orthogonalLoop=1;jettySize=auto;html=1;" edge="1" parent="1" source="UXGLSynC3lZK6X_kjurp-10" target="6bt88VRjsN6lHDlHJyfs-4">
          <mxGeometry relative="1" as="geometry">
            <Array as="points">
              <mxPoint x="514" y="690" />
            </Array>
          </mxGeometry>
        </mxCell>
        <mxCell id="UXGLSynC3lZK6X_kjurp-10" value="Reporting and Analytics Service" style="rounded=1;whiteSpace=wrap;html=1;" parent="1" vertex="1">
          <mxGeometry x="454" y="580" width="120" height="60" as="geometry" />
        </mxCell>
        <mxCell id="6bt88VRjsN6lHDlHJyfs-44" style="edgeStyle=orthogonalEdgeStyle;rounded=0;orthogonalLoop=1;jettySize=auto;html=1;entryX=0.25;entryY=1;entryDx=0;entryDy=0;" edge="1" parent="1" source="UXGLSynC3lZK6X_kjurp-11" target="6bt88VRjsN6lHDlHJyfs-34">
          <mxGeometry relative="1" as="geometry">
            <Array as="points">
              <mxPoint x="1120" y="60" />
            </Array>
          </mxGeometry>
        </mxCell>
        <mxCell id="UXGLSynC3lZK6X_kjurp-11" value="&lt;b&gt;SQL&lt;/b&gt;&lt;div&gt;Users, Booking, Paymetns&lt;/div&gt;" style="shape=cylinder3;whiteSpace=wrap;html=1;boundedLbl=1;backgroundOutline=1;size=15;" parent="1" vertex="1">
          <mxGeometry x="870" y="20" width="100" height="80" as="geometry" />
        </mxCell>
        <mxCell id="6bt88VRjsN6lHDlHJyfs-45" style="edgeStyle=orthogonalEdgeStyle;rounded=0;orthogonalLoop=1;jettySize=auto;html=1;entryX=0.5;entryY=1;entryDx=0;entryDy=0;" edge="1" parent="1" source="UXGLSynC3lZK6X_kjurp-12" target="6bt88VRjsN6lHDlHJyfs-34">
          <mxGeometry relative="1" as="geometry">
            <Array as="points">
              <mxPoint x="1040" y="200" />
            </Array>
          </mxGeometry>
        </mxCell>
        <mxCell id="UXGLSynC3lZK6X_kjurp-12" value="&lt;b&gt;NoSQL&lt;/b&gt;&lt;div&gt;Movies data&lt;/div&gt;&lt;div&gt;User preference&lt;/div&gt;" style="shape=cylinder3;whiteSpace=wrap;html=1;boundedLbl=1;backgroundOutline=1;size=15;" parent="1" vertex="1">
          <mxGeometry x="870" y="160" width="110" height="80" as="geometry" />
        </mxCell>
        <mxCell id="UXGLSynC3lZK6X_kjurp-13" value="&lt;b&gt;File storage&lt;/b&gt;&lt;div&gt;Movie posters, trailers&lt;/div&gt;" style="shape=cylinder3;whiteSpace=wrap;html=1;boundedLbl=1;backgroundOutline=1;size=15;" parent="1" vertex="1">
          <mxGeometry x="870" y="300" width="110" height="80" as="geometry" />
        </mxCell>
        <mxCell id="UXGLSynC3lZK6X_kjurp-14" value="&lt;b&gt;Cache DB&lt;/b&gt;&lt;div&gt;Live Information&lt;div&gt;Seat availability, active bookings. Lookup data&lt;/div&gt;&lt;/div&gt;" style="shape=cylinder3;whiteSpace=wrap;html=1;boundedLbl=1;backgroundOutline=1;size=15;" parent="1" vertex="1">
          <mxGeometry x="597" y="-160" width="110" height="100" as="geometry" />
        </mxCell>
        <mxCell id="6bt88VRjsN6lHDlHJyfs-46" style="edgeStyle=orthogonalEdgeStyle;rounded=0;orthogonalLoop=1;jettySize=auto;html=1;entryX=0.75;entryY=1;entryDx=0;entryDy=0;" edge="1" parent="1" source="UXGLSynC3lZK6X_kjurp-15" target="6bt88VRjsN6lHDlHJyfs-34">
          <mxGeometry relative="1" as="geometry" />
        </mxCell>
        <mxCell id="UXGLSynC3lZK6X_kjurp-15" value="&lt;b&gt;Event Store&lt;/b&gt;&lt;div&gt;Logs, User activity,&lt;/div&gt;&lt;div&gt;Trail data&lt;/div&gt;" style="shape=cylinder3;whiteSpace=wrap;html=1;boundedLbl=1;backgroundOutline=1;size=15;" parent="1" vertex="1">
          <mxGeometry x="870" y="430" width="110" height="80" as="geometry" />
        </mxCell>
        <mxCell id="UXGLSynC3lZK6X_kjurp-25" style="edgeStyle=orthogonalEdgeStyle;rounded=0;orthogonalLoop=1;jettySize=auto;html=1;entryX=0;entryY=0.5;entryDx=0;entryDy=0;entryPerimeter=0;" parent="1" source="UXGLSynC3lZK6X_kjurp-9" target="UXGLSynC3lZK6X_kjurp-11" edge="1">
          <mxGeometry relative="1" as="geometry" />
        </mxCell>
        <mxCell id="UXGLSynC3lZK6X_kjurp-26" style="edgeStyle=orthogonalEdgeStyle;rounded=0;orthogonalLoop=1;jettySize=auto;html=1;entryX=0;entryY=0.5;entryDx=0;entryDy=0;entryPerimeter=0;" parent="1" source="UXGLSynC3lZK6X_kjurp-6" target="UXGLSynC3lZK6X_kjurp-12" edge="1">
          <mxGeometry relative="1" as="geometry">
            <Array as="points">
              <mxPoint x="790" y="170" />
              <mxPoint x="790" y="200" />
            </Array>
          </mxGeometry>
        </mxCell>
        <mxCell id="UXGLSynC3lZK6X_kjurp-27" style="edgeStyle=orthogonalEdgeStyle;rounded=0;orthogonalLoop=1;jettySize=auto;html=1;entryX=0;entryY=0.5;entryDx=0;entryDy=0;entryPerimeter=0;" parent="1" source="UXGLSynC3lZK6X_kjurp-7" target="UXGLSynC3lZK6X_kjurp-12" edge="1">
          <mxGeometry relative="1" as="geometry">
            <Array as="points">
              <mxPoint x="790" y="300" />
              <mxPoint x="790" y="200" />
            </Array>
          </mxGeometry>
        </mxCell>
        <mxCell id="UXGLSynC3lZK6X_kjurp-28" style="edgeStyle=orthogonalEdgeStyle;rounded=0;orthogonalLoop=1;jettySize=auto;html=1;entryX=0;entryY=0.5;entryDx=0;entryDy=0;entryPerimeter=0;" parent="1" source="UXGLSynC3lZK6X_kjurp-7" target="UXGLSynC3lZK6X_kjurp-13" edge="1">
          <mxGeometry relative="1" as="geometry">
            <Array as="points">
              <mxPoint x="790" y="300" />
              <mxPoint x="790" y="340" />
            </Array>
          </mxGeometry>
        </mxCell>
        <mxCell id="UXGLSynC3lZK6X_kjurp-30" style="edgeStyle=orthogonalEdgeStyle;rounded=0;orthogonalLoop=1;jettySize=auto;html=1;entryX=0.5;entryY=1;entryDx=0;entryDy=0;entryPerimeter=0;exitX=0.5;exitY=0;exitDx=0;exitDy=0;" parent="1" source="UXGLSynC3lZK6X_kjurp-6" target="UXGLSynC3lZK6X_kjurp-14" edge="1">
          <mxGeometry relative="1" as="geometry">
            <Array as="points">
              <mxPoint x="514" y="100" />
              <mxPoint x="652" y="100" />
            </Array>
          </mxGeometry>
        </mxCell>
        <mxCell id="6bt88VRjsN6lHDlHJyfs-1" style="edgeStyle=orthogonalEdgeStyle;rounded=0;orthogonalLoop=1;jettySize=auto;html=1;entryX=0;entryY=0;entryDx=0;entryDy=52.5;entryPerimeter=0;" edge="1" parent="1" source="UXGLSynC3lZK6X_kjurp-9" target="UXGLSynC3lZK6X_kjurp-15">
          <mxGeometry relative="1" as="geometry">
            <Array as="points">
              <mxPoint x="790" y="60" />
              <mxPoint x="790" y="483" />
            </Array>
          </mxGeometry>
        </mxCell>
        <mxCell id="6bt88VRjsN6lHDlHJyfs-2" style="edgeStyle=orthogonalEdgeStyle;rounded=0;orthogonalLoop=1;jettySize=auto;html=1;entryX=0;entryY=0;entryDx=0;entryDy=52.5;entryPerimeter=0;" edge="1" parent="1" source="UXGLSynC3lZK6X_kjurp-6" target="UXGLSynC3lZK6X_kjurp-15">
          <mxGeometry relative="1" as="geometry">
            <Array as="points">
              <mxPoint x="790" y="170" />
              <mxPoint x="790" y="483" />
            </Array>
          </mxGeometry>
        </mxCell>
        <mxCell id="6bt88VRjsN6lHDlHJyfs-3" style="edgeStyle=orthogonalEdgeStyle;rounded=0;orthogonalLoop=1;jettySize=auto;html=1;entryX=0;entryY=0;entryDx=0;entryDy=52.5;entryPerimeter=0;" edge="1" parent="1" source="UXGLSynC3lZK6X_kjurp-7" target="UXGLSynC3lZK6X_kjurp-15">
          <mxGeometry relative="1" as="geometry">
            <Array as="points">
              <mxPoint x="790" y="300" />
              <mxPoint x="790" y="483" />
            </Array>
          </mxGeometry>
        </mxCell>
        <mxCell id="6bt88VRjsN6lHDlHJyfs-4" value="Data warehouse / Data lake" style="shape=cylinder3;whiteSpace=wrap;html=1;boundedLbl=1;backgroundOutline=1;size=15;" vertex="1" parent="1">
          <mxGeometry x="870" y="650" width="110" height="80" as="geometry" />
        </mxCell>
        <mxCell id="6bt88VRjsN6lHDlHJyfs-27" style="edgeStyle=orthogonalEdgeStyle;rounded=0;orthogonalLoop=1;jettySize=auto;html=1;entryX=0;entryY=0.5;entryDx=0;entryDy=0;" edge="1" parent="1" source="6bt88VRjsN6lHDlHJyfs-25" target="UXGLSynC3lZK6X_kjurp-7">
          <mxGeometry relative="1" as="geometry" />
        </mxCell>
        <mxCell id="6bt88VRjsN6lHDlHJyfs-28" style="edgeStyle=orthogonalEdgeStyle;rounded=0;orthogonalLoop=1;jettySize=auto;html=1;entryX=0;entryY=0.5;entryDx=0;entryDy=0;" edge="1" parent="1" source="6bt88VRjsN6lHDlHJyfs-25" target="UXGLSynC3lZK6X_kjurp-6">
          <mxGeometry relative="1" as="geometry" />
        </mxCell>
        <mxCell id="6bt88VRjsN6lHDlHJyfs-29" style="edgeStyle=orthogonalEdgeStyle;rounded=0;orthogonalLoop=1;jettySize=auto;html=1;entryX=0;entryY=0.5;entryDx=0;entryDy=0;" edge="1" parent="1" source="6bt88VRjsN6lHDlHJyfs-25" target="UXGLSynC3lZK6X_kjurp-9">
          <mxGeometry relative="1" as="geometry" />
        </mxCell>
        <mxCell id="6bt88VRjsN6lHDlHJyfs-30" style="edgeStyle=orthogonalEdgeStyle;rounded=0;orthogonalLoop=1;jettySize=auto;html=1;entryX=0;entryY=0.5;entryDx=0;entryDy=0;" edge="1" parent="1" source="6bt88VRjsN6lHDlHJyfs-25" target="UXGLSynC3lZK6X_kjurp-10">
          <mxGeometry relative="1" as="geometry" />
        </mxCell>
        <mxCell id="6bt88VRjsN6lHDlHJyfs-25" value="Internal Gateway" style="triangle;whiteSpace=wrap;html=1;" vertex="1" parent="1">
          <mxGeometry x="290" y="270" width="80" height="110" as="geometry" />
        </mxCell>
        <mxCell id="6bt88VRjsN6lHDlHJyfs-31" value="BI /&lt;div&gt;Analytics tool&lt;/div&gt;" style="rounded=1;whiteSpace=wrap;html=1;" vertex="1" parent="1">
          <mxGeometry x="30" y="550" width="120" height="60" as="geometry" />
        </mxCell>
        <mxCell id="6bt88VRjsN6lHDlHJyfs-32" style="edgeStyle=orthogonalEdgeStyle;rounded=0;orthogonalLoop=1;jettySize=auto;html=1;entryX=0.5;entryY=1;entryDx=0;entryDy=0;entryPerimeter=0;" edge="1" parent="1" source="6bt88VRjsN6lHDlHJyfs-31" target="6bt88VRjsN6lHDlHJyfs-4">
          <mxGeometry relative="1" as="geometry">
            <Array as="points">
              <mxPoint x="90" y="750" />
              <mxPoint x="925" y="750" />
            </Array>
          </mxGeometry>
        </mxCell>
        <mxCell id="6bt88VRjsN6lHDlHJyfs-34" value="" style="shape=trapezoid;perimeter=trapezoidPerimeter;whiteSpace=wrap;html=1;fixedSize=1;rotation=-180;" vertex="1" parent="1">
          <mxGeometry x="880" y="550" width="320" height="60" as="geometry" />
        </mxCell>
        <mxCell id="6bt88VRjsN6lHDlHJyfs-37" style="edgeStyle=orthogonalEdgeStyle;rounded=0;orthogonalLoop=1;jettySize=auto;html=1;entryX=1;entryY=0.5;entryDx=0;entryDy=0;entryPerimeter=0;" edge="1" parent="1" source="6bt88VRjsN6lHDlHJyfs-34" target="6bt88VRjsN6lHDlHJyfs-4">
          <mxGeometry relative="1" as="geometry" />
        </mxCell>
        <mxCell id="6bt88VRjsN6lHDlHJyfs-51" style="edgeStyle=orthogonalEdgeStyle;rounded=0;orthogonalLoop=1;jettySize=auto;html=1;entryX=1;entryY=0.5;entryDx=0;entryDy=0;" edge="1" parent="1" source="6bt88VRjsN6lHDlHJyfs-40" target="UXGLSynC3lZK6X_kjurp-8">
          <mxGeometry relative="1" as="geometry">
            <Array as="points">
              <mxPoint x="657" y="510" />
            </Array>
          </mxGeometry>
        </mxCell>
        <mxCell id="6bt88VRjsN6lHDlHJyfs-40" value="" style="shape=trapezoid;perimeter=trapezoidPerimeter;whiteSpace=wrap;html=1;fixedSize=1;rotation=-180;" vertex="1" parent="1">
          <mxGeometry x="597" y="380" width="120" height="60" as="geometry" />
        </mxCell>
        <mxCell id="6bt88VRjsN6lHDlHJyfs-42" value="Event processor / Batch data processor&amp;nbsp;" style="text;html=1;align=center;verticalAlign=middle;whiteSpace=wrap;rounded=0;" vertex="1" parent="1">
          <mxGeometry x="920" y="567" width="240" height="30" as="geometry" />
        </mxCell>
        <mxCell id="6bt88VRjsN6lHDlHJyfs-43" value="Message broker" style="text;html=1;align=center;verticalAlign=middle;whiteSpace=wrap;rounded=0;" vertex="1" parent="1">
          <mxGeometry x="630" y="395" width="60" height="30" as="geometry" />
        </mxCell>
        <mxCell id="6bt88VRjsN6lHDlHJyfs-54" value="Identity server" style="shape=cylinder3;whiteSpace=wrap;html=1;boundedLbl=1;backgroundOutline=1;size=15;" vertex="1" parent="1">
          <mxGeometry x="340" y="-170" width="90" height="120" as="geometry" />
        </mxCell>
      </root>
    </mxGraphModel>
  </diagram>
</mxfile>
